<svg xmlns="http://www.w3.org/2000/svg" version="1.1" xmlns:xlink="http://www.w3.org/1999/xlink" xmlns:svgjs="http://svgjs.dev/svgjs" width="220.98" height="214.13"><svg id="SvgjsSvg1019" data-name="Layer 2" xmlns="http://www.w3.org/2000/svg" viewBox="0 0 220.98 214.13">
  <defs>
    <style>
      .cls-1 {
        fill: #115893;
      }

      .cls-2 {
        fill: #1a1a1a;
      }
    </style>
  </defs>
  <g id="SvgjsG1018" data-name="Layer 1">
    <g>
      <polygon class="cls-1" points="160.51 46.64 211.29 46.64 220.98 0 170.2 0 160.51 46.64"></polygon>
      <path class="cls-2" d="m139.12,55.82c-10.32-8.68-26.17-13.08-47.12-13.08s-36.4,4.18-48.73,12.44c-12.41,8.31-21.22,19.98-26.2,34.69l-1.75,5.18,49.99,4.28.95-3.43c1.3-4.72,3.66-8.24,7.2-10.75,3.59-2.54,8.74-3.82,15.32-3.82,6.06,0,10.55,1.19,13.35,3.54,2.65,2.23,3.89,4.77,3.89,7.99,0,2.66-.61,6.24-1.83,10.66-6.94,1.95-19.37,3.68-36.98,5.13-24.97,1.96-42,7.61-52.06,17.29-10.05,9.68-15.14,22.69-15.14,38.66,0,14.39,4.66,26.37,13.84,35.6,9.19,9.24,20.95,13.93,34.96,13.93,8.69,0,17.42-1.98,25.94-5.88,5.84-2.67,11.27-6.17,16.21-10.45.55,3.26,1.29,6.47,2.2,9.59l.9,3.08h49.76l-1.58-5.48c-2.22-7.67-3.35-14.71-3.35-20.92,0-7.07,2.03-19.86,6.05-38.02,4.97-22.4,7.92-36.48,8.76-41.85.86-5.47,1.29-10.71,1.29-15.6,0-12.88-5.34-23.91-15.88-32.79Zm-42.56,83.42c-2,9.32-4.26,16.22-6.73,20.51-2.41,4.18-5.99,7.53-10.94,10.25-4.96,2.71-10.3,4.08-15.88,4.08-4.66,0-8.24-1.26-10.95-3.87-2.66-2.54-3.95-5.58-3.95-9.27,0-4.65,1.65-8.08,5.18-10.79,3.99-3.02,14.03-7.25,39.3-10.3,1.41-.2,2.74-.4,3.97-.61Z"></path>
    </g>
  </g>
</svg><style>@media (prefers-color-scheme: light) { :root { filter: none; } }
@media (prefers-color-scheme: dark) { :root { filter: none; } }
</style></svg>